<?xml version="1.0" encoding="UTF-8" standalone="no"?>
<svg
   xmlns:dc="http://purl.org/dc/elements/1.1/"
   xmlns:cc="http://creativecommons.org/ns#"
   xmlns:rdf="http://www.w3.org/1999/02/22-rdf-syntax-ns#"
   xmlns:svg="http://www.w3.org/2000/svg"
   xmlns="http://www.w3.org/2000/svg"
   xmlns:sodipodi="http://sodipodi.sourceforge.net/DTD/sodipodi-0.dtd"
   xmlns:inkscape="http://www.inkscape.org/namespaces/inkscape"
   width="210mm"
   height="297mm"
   viewBox="0 0 210 297"
   version="1.1"
   id="svg849"
   inkscape:version="1.0 (4035a4fb49, 2020-05-01)"
   sodipodi:docname="dog.svg">
  <defs
     id="defs843" />
  <sodipodi:namedview
     inkscape:snap-global="false"
     id="base"
     pagecolor="#ffffff"
     bordercolor="#666666"
     borderopacity="1.0"
     inkscape:pageopacity="0.0"
     inkscape:pageshadow="2"
     inkscape:zoom="0.35"
     inkscape:cx="414.28571"
     inkscape:cy="211.42857"
     inkscape:document-units="mm"
     inkscape:current-layer="layer1"
     inkscape:document-rotation="0"
     showgrid="false"
     inkscape:window-width="1259"
     inkscape:window-height="877"
     inkscape:window-x="246"
     inkscape:window-y="0"
     inkscape:window-maximized="0" />
  <metadata
     id="metadata846">
    <rdf:RDF>
      <cc:Work
         rdf:about="">
        <dc:format>image/svg+xml</dc:format>
        <dc:type
           rdf:resource="http://purl.org/dc/dcmitype/StillImage" />
        <dc:title></dc:title>
      </cc:Work>
    </rdf:RDF>
  </metadata>
  <g
     inkscape:label="Layer 1"
     inkscape:groupmode="layer"
     id="layer1">
    <g
       style="fill:none"
       id="g1425"
       transform="matrix(7.5259258,0,0,7.5259258,108.97478,-46.871899)"
       inkscape:export-xdpi="15.5186"
       inkscape:export-ydpi="15.5186">
      <path
         id="path1414"
         fill="#323232"
         d="M 18,3.25 C 18,2.5625 17.4375,2 16.75,2 H 15.1875 V 1.96875 C 14.9062,1.40625 14.3125,1 13.625,1 H 11.25 C 11.2188,1 11.2188,1.03125 11.1875,1.03125 V 1 L 10.3438,0.15625 C 10.0312,-0.15625 9.5,0.0625 9.5,0.5 V 6 H 5.75 C 4.75,6 3.875,6.40625 3.21875,7 H 2.75 C 2.03125,7 1.5,6.46875 1.5,5.75 1.5,5.34375 1.15625,5 0.75,5 0.3125,5 0,5.34375 0,5.75 0,7.09375 0.96875,8.21875 2.21875,8.46875 2.0625,8.875 2,9.3125 2,9.75 V 15 c 0,0.5625 0.4375,1 1,1 h 2.5 c 0.53125,0 1,-0.4375 1,-1 v -3 h 4 v 3 c 0,0.5625 0.4375,1 1,1 H 14 c 0.5312,0 1,-0.4375 1,-1 V 7.5 h 0.25 c 1.5,0 2.7188,-1.21875 2.75,-2.75 z M 13.5,8.40625 V 14.5 H 12 v -4 H 5 v 4 H 3.5 V 9.75 C 3.5,8.53125 4.5,7.53125 5.75,7.5 H 9.90625 Z M 16.5,3.5 V 4.75 C 16.5,5.46875 15.9375,6 15.25,6 H 13.5 V 6.875 L 11,6.25 V 2.75 C 11,2.625 11.0938,2.5 11.25,2.5 h 2.375 c 0.0938,0 0.1875,0.0625 0.2188,0.15625 L 14.2812,3.5 Z m -3,0 C 13.5,3.25 13.25,3 13,3 12.7188,3 12.5,3.25 12.5,3.5 12.5,3.78125 12.7188,4 13,4 13.25,4 13.5,3.78125 13.5,3.5 Z" />
    </g>
    <path
       d="m 127.54297,-47.851562 c -1.25844,1.701236 -3.20508,3.130485 -3.45508,5.378906 -0.20567,2.003774 1.36803,3.572 2.85856,4.653292 14.49709,11.466046 28.92993,23.015387 43.38592,34.5340439 4.59117,3.66133405 9.18116,7.3241602 13.7731,10.9845389 0.32151,-1.8552091 0.0855,-3.8942098 1.16211,-5.5390626 1.41867,-1.90596059 0.42645,-4.8171523 -1.55078,-5.9277343 -18.62945,-14.8101139 -37.23029,-29.6561489 -55.84375,-44.4863279 -0.11003,0.134114 -0.22006,0.268229 -0.33008,0.402344 z"
       style="color:#000000;font-style:normal;font-variant:normal;font-weight:normal;font-stretch:normal;font-size:medium;line-height:normal;font-family:sans-serif;font-variant-ligatures:normal;font-variant-position:normal;font-variant-caps:normal;font-variant-numeric:normal;font-variant-alternates:normal;font-variant-east-asian:normal;font-feature-settings:normal;font-variation-settings:normal;text-indent:0;text-align:start;text-decoration:none;text-decoration-line:none;text-decoration-style:solid;text-decoration-color:#000000;letter-spacing:normal;word-spacing:normal;text-transform:none;writing-mode:lr-tb;direction:ltr;text-orientation:mixed;dominant-baseline:auto;baseline-shift:baseline;text-anchor:start;white-space:normal;shape-padding:0;shape-margin:0;inline-size:0;clip-rule:nonzero;display:inline;overflow:visible;visibility:visible;opacity:1;isolation:auto;mix-blend-mode:normal;color-interpolation:sRGB;color-interpolation-filters:linearRGB;solid-color:#000000;solid-opacity:1;vector-effect:none;fill:#323232;fill-opacity:1;fill-rule:nonzero;stroke:none;stroke-width:3.21935;stroke-linecap:butt;stroke-linejoin:miter;stroke-miterlimit:4;stroke-dasharray:none;stroke-dashoffset:0;stroke-opacity:1;color-rendering:auto;image-rendering:auto;shape-rendering:auto;text-rendering:auto;enable-background:accumulate;stop-color:#000000;stop-opacity:1"
       id="path1433" />
    <path
       style="fill:none;fill-opacity:1;stroke-width:9.02065;stroke-miterlimit:4;stroke-dasharray:none"
       d="m 129.85955,73.01825 c -1.0366,-0.25712 -2.63645,-1.3066 -3.60814,-2.3669 l -1.74576,-1.90496 V 45.30378 c 0,-19.231088 0.143,-23.91403 0.79602,-26.066635 0.43781,-1.443207 0.79862,-2.68415 0.80181,-2.757649 0.003,-0.0735 -0.41517,-0.133826 -0.92966,-0.134057 -1.93256,-0.0011 -7.44018,-3.177995 -9.8544,-5.684604 -3.07812,-3.195923 -5.04631,-7.032038 -5.67946,-11.069593 -0.62944,-4.01388 -0.30654,-5.428377 1.60666,-7.038226 3.79567,-3.193851 8.98271,-0.07856 8.98271,5.394936 0,2.063978 2.09402,5.454499 4.15571,6.728698 1.10878,0.685258 3.08945,1.211125 5.19971,1.380517 3.17899,0.255177 3.54598,0.165497 5.44563,-1.330746 2.62444,-2.067099 6.62092,-4.071596 10.28567,-5.158928 2.33002,-0.691314 5.52934,-0.86142 16.20136,-0.86142 7.70701,0 13.17346,-0.201506 13.00179,-0.479279 -0.16291,-0.263602 -16.05326,-13.15225 -35.31188,-28.64144 -24.56929,-19.760417 -35.11365,-28.5525 -35.34406,-29.470535 -0.23368,-0.93108 0.0958,-1.920439 1.14254,-3.430903 0.809,-1.167392 1.61861,-2.105734 1.79912,-2.085205 0.18051,0.02053 16.80537,13.326415 36.94413,29.568633 l 36.61593,29.531305 0.26727,-19.126645 c 0.28714,-20.549032 0.22998,-20.160065 3.08853,-21.017873 1.01017,-0.303139 1.89055,0.287075 5.16671,3.463787 l 3.94905,3.829188 9.31562,-0.06771 c 5.12359,-0.03724 10.4629,0.189399 11.86514,0.503648 2.98742,0.669496 6.5432,3.000605 8.00713,5.249349 l 1.03449,1.589074 7.3035,0.200573 c 6.84754,0.188052 7.438,0.289581 9.4579,1.626288 1.33041,0.880425 2.60934,2.365494 3.34389,3.882863 1.11134,2.295732 1.17446,3.009144 0.96082,10.859688 -0.29387,10.798612 -1.11412,13.206288 -6.24822,18.34039 -3.93261,3.932606 -7.44523,5.614842 -12.91876,6.186938 l -3.13173,0.327332 -0.15092,29.286601 c -0.14751,28.62494 -0.17582,29.31995 -1.25303,30.76226 -2.71044,3.62913 -2.92243,3.67987 -15.37416,3.67987 -10.83797,0 -11.40278,-0.0516 -13.27034,-1.21298 -3.30064,-2.0525 -3.66208,-3.75398 -3.66208,-17.23944 V 43.07281 h -15.23436 -15.23436 v 12.16911 c 0,13.65253 -0.27526,14.88056 -3.80223,16.96327 -1.61958,0.95638 -2.88109,1.07993 -11.96668,1.17204 -5.58593,0.0566 -10.99431,-0.10492 -12.01861,-0.35898 z M 146.95629,47.34913 V 32.382034 h 25.92514 25.92514 V 47.34913 62.31622 h 6.15288 6.15288 L 210.97301,39.23068 210.8337,16.145142 197.47023,12.78618 184.10675,9.42722 166.96488,9.412033 c -19.59693,-0.01738 -20.9316,0.186378 -25.4406,3.883446 -1.50832,1.236715 -3.48899,3.571555 -4.40149,5.188537 l -1.65909,2.939958 -0.15743,20.446116 -0.15742,20.44612 h 5.90372 5.90372 z M 211.10097,1.963425 v -3.157111 l 7.61718,-0.192154 c 8.83623,-0.222904 10.84562,-0.889783 13.14391,-4.362215 1.30091,-1.965515 1.43849,-2.688222 1.61222,-8.469085 l 0.18993,-6.320194 h -8.50565 -8.50566 l -1.80758,-3.736441 c -2.19171,-4.530495 -1.83825,-4.423336 -13.80832,-4.186343 -7.00602,0.13871 -8.78371,0.327038 -9.19174,0.973778 -0.28298,0.448527 -0.50947,6.744216 -0.51405,14.288735 l -0.008,13.486929 1.46998,0.371578 c 0.80849,0.204378 4.95785,1.269543 9.2208,2.367042 4.26295,1.0975 8.0515,2.017308 8.41899,2.044023 0.46461,0.03378 0.66818,-0.913302 0.66818,-3.108542 z"
       id="path1467"
       inkscape:export-xdpi="15.5186"
       inkscape:export-ydpi="15.5186" />
  </g>
</svg>
