<?xml version="1.0" encoding="UTF-8" standalone="no"?>
<svg
   xmlns:dc="http://purl.org/dc/elements/1.1/"
   xmlns:cc="http://creativecommons.org/ns#"
   xmlns:rdf="http://www.w3.org/1999/02/22-rdf-syntax-ns#"
   xmlns:svg="http://www.w3.org/2000/svg"
   xmlns="http://www.w3.org/2000/svg"
   xmlns:sodipodi="http://sodipodi.sourceforge.net/DTD/sodipodi-0.dtd"
   xmlns:inkscape="http://www.inkscape.org/namespaces/inkscape"
   width="210mm"
   height="297mm"
   viewBox="0 0 210 297"
   version="1.1"
   id="svg851"
   inkscape:version="1.0 (4035a4fb49, 2020-05-01)"
   sodipodi:docname="dogwalk.svg">
  <defs
     id="defs845" />
  <sodipodi:namedview
     id="base"
     pagecolor="#ffffff"
     bordercolor="#666666"
     borderopacity="1.0"
     inkscape:pageopacity="0.0"
     inkscape:pageshadow="2"
     inkscape:zoom="0.175"
     inkscape:cx="-30.698099"
     inkscape:cy="604.52529"
     inkscape:document-units="mm"
     inkscape:current-layer="layer1"
     inkscape:document-rotation="0"
     showgrid="false"
     showborder="false"
     inkscape:snap-global="true"
     inkscape:window-width="1769"
     inkscape:window-height="776"
     inkscape:window-x="31"
     inkscape:window-y="181"
     inkscape:window-maximized="0" />
  <metadata
     id="metadata848">
    <rdf:RDF>
      <cc:Work
         rdf:about="">
        <dc:format>image/svg+xml</dc:format>
        <dc:type
           rdf:resource="http://purl.org/dc/dcmitype/StillImage" />
        <dc:title></dc:title>
      </cc:Work>
    </rdf:RDF>
  </metadata>
  <g
     inkscape:label="Layer 1"
     inkscape:groupmode="layer"
     id="layer1">
    <g
       style="fill:none"
       id="g1425"
       transform="matrix(7.5259259,0,0,7.5259259,38.100003,81.877116)">
      <path
         id="path1414"
         fill="#323232"
         d="M 18,3.25 C 18,2.5625 17.4375,2 16.75,2 H 15.1875 V 1.96875 C 14.9062,1.40625 14.3125,1 13.625,1 H 11.25 C 11.2188,1 11.2188,1.03125 11.1875,1.03125 V 1 L 10.3438,0.15625 C 10.0312,-0.15625 9.5,0.0625 9.5,0.5 V 6 H 5.75 C 4.75,6 3.875,6.40625 3.21875,7 H 2.75 C 2.03125,7 1.5,6.46875 1.5,5.75 1.5,5.34375 1.15625,5 0.75,5 0.3125,5 0,5.34375 0,5.75 0,7.09375 0.96875,8.21875 2.21875,8.46875 2.0625,8.875 2,9.3125 2,9.75 V 15 c 0,0.5625 0.4375,1 1,1 h 2.5 c 0.53125,0 1,-0.4375 1,-1 v -3 h 4 v 3 c 0,0.5625 0.4375,1 1,1 H 14 c 0.5312,0 1,-0.4375 1,-1 V 7.5 h 0.25 c 1.5,0 2.7188,-1.21875 2.75,-2.75 z M 13.5,8.40625 V 14.5 H 12 v -4 H 5 v 4 H 3.5 V 9.75 C 3.5,8.53125 4.5,7.53125 5.75,7.5 H 9.90625 Z M 16.5,3.5 V 4.75 C 16.5,5.46875 15.9375,6 15.25,6 H 13.5 V 6.875 L 11,6.25 V 2.75 C 11,2.625 11.0938,2.5 11.25,2.5 h 2.375 c 0.0938,0 0.1875,0.0625 0.2188,0.15625 L 14.2812,3.5 Z m -3,0 C 13.5,3.25 13.25,3 13,3 12.7188,3 12.5,3.25 12.5,3.5 12.5,3.78125 12.7188,4 13,4 13.25,4 13.5,3.78125 13.5,3.5 Z" />
    </g>
    <path
       id="path1433"
       style="color:#000000;font-style:normal;font-variant:normal;font-weight:normal;font-stretch:normal;font-size:medium;line-height:normal;font-family:sans-serif;font-variant-ligatures:normal;font-variant-position:normal;font-variant-caps:normal;font-variant-numeric:normal;font-variant-alternates:normal;font-variant-east-asian:normal;font-feature-settings:normal;font-variation-settings:normal;text-indent:0;text-align:start;text-decoration:none;text-decoration-line:none;text-decoration-style:solid;text-decoration-color:#000000;letter-spacing:normal;word-spacing:normal;text-transform:none;writing-mode:lr-tb;direction:ltr;text-orientation:mixed;dominant-baseline:auto;baseline-shift:baseline;text-anchor:start;white-space:normal;shape-padding:0;shape-margin:0;inline-size:0;clip-rule:nonzero;display:inline;overflow:visible;visibility:visible;opacity:1;isolation:auto;mix-blend-mode:normal;color-interpolation:sRGB;color-interpolation-filters:linearRGB;solid-color:#000000;solid-opacity:1;vector-effect:none;fill:#323232;fill-opacity:1;fill-rule:nonzero;stroke:none;stroke-width:4.465;stroke-linecap:butt;stroke-linejoin:miter;stroke-miterlimit:4;stroke-dasharray:none;stroke-dashoffset:0;stroke-opacity:1;color-rendering:auto;image-rendering:auto;shape-rendering:auto;text-rendering:auto;enable-background:accumulate;stop-color:#000000;stop-opacity:1"
       d="m 35.832031,62.765625 c -1.281941,1.685411 -3.226893,3.141895 -3.410156,5.408203 0.111485,2.119094 2.015535,3.42085 3.552218,4.582364 25.174437,20.17921 50.296262,40.423898 75.428247,60.655918 0.16909,-1.68915 0.49379,-3.46423 1.64309,-4.78447 0.92317,-1.62516 0.28751,-3.85859 -1.29964,-4.82039 C 104.81425,118.31107 97.95563,112.71594 91.048405,107.18538 72.643014,92.380024 54.237091,77.564841 35.832031,62.765625 Z" />
    <path
       id="path2"
       style="fill:#323232;fill-opacity:1;stroke-width:8.46667"
       d="m 496.6572,75.997125 c -2.1977,0.104991 -3.84745,1.756973 -5.24228,3.281232 -16.54123,16.5514 -33.11975,33.067983 -49.6146,49.662873 -1.51712,1.72975 -1.3459,4.17258 -1.29947,6.31449 0.004,19.08552 -0.0277,38.17237 0.0372,57.25703 0.2516,3.09338 3.34071,5.52895 6.40117,5.18754 12.73737,-0.0134 25.47858,0.0457 38.21351,-0.0508 3.05107,-0.2999 5.42471,-3.36402 5.0904,-6.38751 0,-10.55377 0,-21.10755 0,-31.66133 4.58593,0 9.17187,0 13.75781,0 0.013,11.00326 -0.0453,22.01037 0.0508,33.01117 0.30158,3.05042 3.36281,5.42453 6.38751,5.08848 12.73737,-0.0134 25.47858,0.0457 38.21351,-0.0508 3.05109,-0.2999 5.42468,-3.36402 5.09042,-6.38751 -0.009,-19.78326 0.0364,-39.56877 -0.0418,-59.35062 -0.19592,-2.3285 -2.12053,-3.90538 -3.67115,-5.4292 -2.99609,-2.99306 -5.99218,-5.98611 -8.98828,-8.97916 -0.0131,-9.31836 0.0455,-18.640593 -0.0508,-27.95649 -0.29951,-3.05103 -3.36374,-5.42465 -6.38751,-5.087914 -3.04219,0.0579 -6.10188,-0.142709 -9.1321,0.143754 -2.84788,0.579611 -4.87426,3.540901 -4.53899,6.403378 0,2.127995 0,4.25599 0,6.383989 -6.74829,-6.731479 -13.4428,-13.517628 -20.25415,-20.18262 -1.12466,-0.891349 -2.59635,-1.303249 -4.02124,-1.209962 z m 45.44336,59.029295 c 0,17.01042 0,34.02084 0,51.03125 -8.81966,0 -17.63933,0 -26.45899,0 -0.013,-11.00325 0.0453,-22.01036 -0.0508,-33.01117 -0.2992,-3.05143 -3.36366,-5.42371 -6.38751,-5.0885 -8.5043,0.0131 -17.01247,-0.0452 -25.51429,0.0508 -3.04944,0.30213 -5.42604,3.36282 -5.08844,6.38751 0,10.55377 0,21.10755 0,31.66132 -8.81966,0 -17.63933,0 -26.45899,0 0,-17.01041 0,-34.02083 0,-51.03125 14.99349,-14.99283 29.98698,-29.98567 44.98047,-44.978514 14.99284,14.992844 29.98568,29.985684 44.97852,44.978514 z" />
    <path
       style="fill:none;fill-opacity:1;stroke-width:34.0938;stroke-miterlimit:4;stroke-dasharray:none"
       d="m 222.93457,762.58493 c -3.91786,-0.97179 -9.96452,-4.93833 -13.63706,-8.94577 l -6.59816,-7.19984 v -88.60199 c 0,-72.68442 0.5405,-90.38373 3.00859,-98.51956 1.65472,-5.45464 3.01842,-10.14482 3.03045,-10.42261 0.0121,-0.27779 -1.56912,-0.5058 -3.51366,-0.50667 -7.30417,-0.004 -28.12038,-12.01132 -37.24496,-21.48512 -11.63384,-12.07908 -19.07267,-26.57778 -21.46569,-41.83783 -2.37897,-15.17057 -1.15858,-20.5167 6.0724,-26.60117 14.34585,-12.07125 33.95043,-0.29691 33.95043,20.39031 0,7.80086 7.9144,20.61543 15.70661,25.4313 4.19065,2.58995 11.67664,4.57748 19.65245,5.2177 12.01507,0.96445 13.40213,0.6255 20.58192,-5.02959 9.91911,-7.81266 25.02393,-15.38871 38.87497,-19.49831 8.80637,-2.61284 20.89826,-3.25576 61.23346,-3.25576 29.12886,0 49.78947,-0.7616 49.14063,-1.81145 -0.61573,-0.99629 -60.67374,-49.70929 -133.46223,-108.25111 -92.8603,-74.68504 -132.71298,-107.91496 -133.58383,-111.3847 -0.88322,-3.51904 0.36202,-7.25835 4.31824,-12.96719 3.05766,-4.41219 6.11758,-7.95868 6.79983,-7.88109 0.68226,0.0776 63.51637,50.36755 139.63137,111.75546 l 138.3909,111.61438 1.01015,-72.28968 c 1.08527,-77.66563 0.86924,-76.19552 11.6732,-79.43763 3.81795,-1.14572 7.14538,1.08501 19.52771,13.09148 l 14.92556,14.47252 35.20865,-0.25592 c 19.36474,-0.14075 39.54483,0.71584 44.84463,1.90355 11.29104,2.53038 24.73019,11.34087 30.26316,19.84006 l 3.90988,6.00595 27.60379,0.75807 c 25.88045,0.71075 28.11212,1.09448 35.74639,6.1466 5.02832,3.32759 9.86206,8.94045 12.6383,14.67539 4.20036,8.67678 4.43891,11.37314 3.63146,41.04449 -1.11069,40.81365 -4.21084,49.91353 -23.61533,69.31801 -14.86338,14.86339 -28.13945,21.22145 -48.82681,23.3837 l -11.83646,1.23716 -0.5704,110.68954 c -0.5575,108.18873 -0.6645,110.81553 -4.73584,116.2668 -10.24419,13.7164 -11.04541,13.90817 -58.10708,13.90817 -40.96239,0 -43.09711,-0.19516 -50.15563,-4.58448 -12.47486,-7.75751 -13.84091,-14.1883 -13.84091,-65.15694 v -44.40582 h -57.57869 -57.5787 v 45.99346 c 0,51.60012 -1.04033,56.24151 -14.37062,64.11317 -6.12125,3.61465 -10.88915,4.08162 -45.22838,4.42974 -21.11219,0.21403 -41.5533,-0.39653 -45.42469,-1.35678 z m 64.61759,-97.01715 v -56.56854 h 97.9848 97.98479 v 56.56854 56.56854 h 23.25497 23.25498 l -0.52655,-87.25243 -0.52653,-87.25243 -50.50763,-12.69529 -50.50763,-12.69528 -64.78815,-0.0574 c -74.06715,-0.0657 -79.11157,0.70442 -96.15348,14.67759 -5.70072,4.6742 -13.18671,13.49879 -16.63554,19.61022 l -6.27059,11.11165 -0.59498,77.27667 -0.59499,77.27667 h 22.31327 22.31326 z M 529.98877,494.03127 v -11.93239 l 28.78935,-0.72625 c 33.39675,-0.84247 40.9913,-3.36296 49.67776,-16.48711 4.91682,-7.42872 5.43681,-10.16021 6.09343,-32.00914 l 0.71785,-23.88735 H 583.1198 550.97243 l -6.83177,-14.12198 c -8.28365,-17.12313 -6.94774,-16.71812 -52.18894,-15.8224 -26.47945,0.52426 -33.1983,1.23605 -34.74046,3.68042 -1.06951,1.69522 -1.92553,25.48995 -1.94285,54.00467 l -0.0309,50.97422 5.55584,1.40439 c 3.05571,0.77245 18.73833,4.79827 34.85026,8.9463 16.11194,4.14803 30.43085,7.62447 31.81981,7.72544 1.75597,0.12769 2.52538,-3.45185 2.52538,-11.74882 z"
       id="path1467"
       transform="scale(0.26458333)" />
    <g
       id="g1513"
       transform="matrix(5.6444444,0,0,5.6444444,468.80387,-197.37917)">
      <g
         id="g1495">
        <rect
           id="rect1493"
           width="24"
           height="24"
           fill="none"
           x="0"
           y="0" />
      </g>
      <g
         id="g1499">
        <path
           id="path1497"
           d="m 20.263393,12.870536 v -2 h -2 V 7.8705357 l -3,-3 -2,2 -2,-2 -2.0000001,2 -2,-2 -3,3 v 3.0000003 h -2 v 2 h 2 v 2 h -2 v 2 h 2 v 4 H 18.263393 v -4 h 2 v -2 h -2 v -2 z m -5,-5.1700003 1,1 v 2.1700003 h -2 V 8.7005357 l 0.41,-0.41 z m -4,0 0.59,0.59 0.41,0.41 v 2.1700003 h -2 V 8.7005357 l 0.41,-0.41 z m -1,7.1700003 v -2 h 2 v 2 z m 2,2 v 2 h -2 v -2 z m -6.0000001,-8.1700003 1,-1 0.59,0.59 0.41,0.41 v 2.1700003 h -2 z m 0,4.1700003 h 2 v 2 h -2 z m 0,4 h 2 v 2 h -2 z m 10.0000001,2 h -2 v -2 h 2 z m 0,-4 h -2 v -2 h 2 z"
           style="fill:#323232;fill-opacity:1" />
      </g>
    </g>
    <path
       d="m 312.22966,138.96944 c -13.88216,0 -26.45632,1.28682 -35.39474,3.31194 -4.46934,1.01257 -8.03638,2.22895 -10.28877,3.43545 -1.12607,0.60325 -1.91051,1.20695 -2.31717,1.65727 -0.40667,0.45005 -0.41807,0.63906 -0.41807,0.72346 0,0.0847 0.0114,0.27342 0.41807,0.72348 0.40666,0.45032 1.1911,1.05401 2.31717,1.65726 2.25239,1.2065 5.81943,2.42289 10.28877,3.43545 1.27582,0.28919 2.63355,0.56111 4.05093,0.81855 a 31.75,4.2333333 0 0 1 31.34381,-3.59203 31.75,4.2333333 0 0 1 31.35725,3.58996 c 1.41237,-0.25664 2.7659,-0.52809 4.03802,-0.81648 4.46881,-1.01256 8.03587,-2.22895 10.28824,-3.43545 1.12607,-0.60325 1.91053,-1.20694 2.31717,-1.65726 0.40669,-0.45006 0.41807,-0.63907 0.41807,-0.72348 0,-0.0847 -0.0114,-0.27341 -0.41807,-0.72346 -0.40664,-0.45032 -1.1911,-1.05402 -2.31717,-1.65727 -2.25237,-1.2065 -5.81943,-2.42288 -10.28877,-3.43545 -8.93842,-2.02512 -21.51258,-3.31194 -35.39474,-3.31194 z m -50.52973,13.99966 -10.74973,28.66492 -0.01,0.0238 c -0.31301,0.7829 -0.27209,1.14972 0.0372,1.75958 0.30956,0.61013 1.07678,1.44592 2.40657,2.29444 2.65906,1.6973 7.3719,3.34936 13.31391,4.64106 11.88376,2.58365 28.72261,3.91449 45.53159,3.91449 16.80924,0 33.64785,-1.33084 45.53159,-3.91449 5.94175,-1.2917 10.65485,-2.94351 13.31391,-4.64055 1.32953,-0.84878 2.09727,-1.68482 2.40657,-2.29495 0.30956,-0.60986 0.35052,-0.97668 0.0372,-1.75958 l -0.01,-0.0238 -10.7492,-28.66492 c -0.7538,0.62812 -1.62095,1.18431 -2.59779,1.70739 -2.88896,1.54755 -6.76122,2.8117 -11.48509,3.88193 -9.44745,2.14049 -22.27365,3.42977 -36.44738,3.42977 -14.17373,0 -26.99991,-1.28928 -36.44739,-3.42977 -4.72387,-1.07023 -8.59636,-2.33438 -11.48508,-3.88193 -0.97658,-0.52308 -1.84346,-1.07953 -2.59726,-1.70739 z"
       style="fill:#323232;fill-opacity:1;stroke-width:0.264583"
       id="path1517-9" />
  </g>
</svg>
