<?xml version="1.0" encoding="UTF-8" standalone="no"?>
<svg
   xmlns:dc="http://purl.org/dc/elements/1.1/"
   xmlns:cc="http://creativecommons.org/ns#"
   xmlns:rdf="http://www.w3.org/1999/02/22-rdf-syntax-ns#"
   xmlns:svg="http://www.w3.org/2000/svg"
   xmlns="http://www.w3.org/2000/svg"
   xmlns:sodipodi="http://sodipodi.sourceforge.net/DTD/sodipodi-0.dtd"
   xmlns:inkscape="http://www.inkscape.org/namespaces/inkscape"
   sodipodi:docname="dropin.svg"
   inkscape:version="1.0 (4035a4fb49, 2020-05-01)"
   id="svg1442"
   version="1.1"
   viewBox="0 0 210 297"
   height="297mm"
   width="210mm">
  <defs
     id="defs1436" />
  <sodipodi:namedview
     inkscape:window-maximized="0"
     inkscape:window-y="0"
     inkscape:window-x="52"
     inkscape:window-height="910"
     inkscape:window-width="1375"
     showgrid="false"
     inkscape:document-rotation="0"
     inkscape:current-layer="layer1"
     inkscape:document-units="mm"
     inkscape:cy="560"
     inkscape:cx="400"
     inkscape:zoom="0.35"
     inkscape:pageshadow="2"
     inkscape:pageopacity="0.0"
     borderopacity="1.0"
     bordercolor="#666666"
     pagecolor="#ffffff"
     id="base" />
  <metadata
     id="metadata1439">
    <rdf:RDF>
      <cc:Work
         rdf:about="">
        <dc:format>image/svg+xml</dc:format>
        <dc:type
           rdf:resource="http://purl.org/dc/dcmitype/StillImage" />
        <dc:title></dc:title>
      </cc:Work>
    </rdf:RDF>
  </metadata>
  <g
     id="layer1"
     inkscape:groupmode="layer"
     inkscape:label="Layer 1">
    <path
       inkscape:export-ydpi="15.5186"
       inkscape:export-xdpi="15.5186"
       id="path1517-9"
       style="fill:#323232;fill-opacity:1;stroke-width:0.264583"
       d="m 109.61318,138.66054 c -13.88216,0 -26.45632,1.28682 -35.39474,3.31194 -4.46934,1.01257 -8.03638,2.22895 -10.28877,3.43545 -1.12607,0.60325 -1.91051,1.20695 -2.31717,1.65727 -0.40667,0.45005 -0.41807,0.63906 -0.41807,0.72346 0,0.0847 0.0114,0.27342 0.41807,0.72348 0.40666,0.45032 1.1911,1.05401 2.31717,1.65726 2.25239,1.2065 5.81943,2.42289 10.28877,3.43545 1.27582,0.28919 2.63355,0.56111 4.05093,0.81855 a 31.75,4.2333333 0 0 1 31.34381,-3.59203 31.75,4.2333333 0 0 1 31.35725,3.58996 c 1.41237,-0.25664 2.7659,-0.52809 4.03802,-0.81648 4.46881,-1.01256 8.03587,-2.22895 10.28824,-3.43545 1.12607,-0.60325 1.91053,-1.20694 2.31717,-1.65726 0.40669,-0.45006 0.41807,-0.63907 0.41807,-0.72348 0,-0.0847 -0.0114,-0.27341 -0.41807,-0.72346 -0.40664,-0.45032 -1.1911,-1.05402 -2.31717,-1.65727 -2.25237,-1.2065 -5.81943,-2.42288 -10.28877,-3.43545 -8.93842,-2.02512 -21.51258,-3.31194 -35.39474,-3.31194 z m -50.52973,13.99966 -10.74973,28.66492 -0.01,0.0238 c -0.31301,0.7829 -0.27209,1.14972 0.0372,1.75958 0.30956,0.61013 1.07678,1.44592 2.40657,2.29444 2.65906,1.6973 7.3719,3.34936 13.31391,4.64106 11.88376,2.58365 28.72261,3.91449 45.53159,3.91449 16.80924,0 33.64785,-1.33084 45.53159,-3.91449 5.94175,-1.2917 10.65485,-2.94351 13.31391,-4.64055 1.32953,-0.84878 2.09727,-1.68482 2.40657,-2.29495 0.30956,-0.60986 0.35052,-0.97668 0.0372,-1.75958 l -0.01,-0.0238 -10.7492,-28.66492 c -0.7538,0.62812 -1.62095,1.18431 -2.59779,1.70739 -2.88896,1.54755 -6.76122,2.8117 -11.4851,3.88193 -9.44744,2.14049 -22.27364,3.42977 -36.44737,3.42977 -14.17374,0 -26.99992,-1.28928 -36.4474,-3.42977 -4.72386,-1.07023 -8.59635,-2.33438 -11.48507,-3.88193 -0.97658,-0.52308 -1.84346,-1.07953 -2.59726,-1.70739 z" />
  </g>
</svg>
